<svg width="206" height="31" viewBox="0 0 236 25" fill="none" xmlns="http://www.w3.org/2000/svg">
<path d="M0.0227273 24.5V1.22727H9.34091C11.053 1.22727 12.4811 1.48106 13.625 1.98864C14.7689 2.49621 15.6288 3.20076 16.2045 4.10227C16.7803 4.99621 17.0682 6.02652 17.0682 7.19318C17.0682 8.10227 16.8864 8.90152 16.5227 9.59091C16.1591 10.2727 15.6591 10.8333 15.0227 11.2727C14.3939 11.7045 13.6742 12.0114 12.8636 12.1932V12.4205C13.75 12.4583 14.5795 12.7083 15.3523 13.1705C16.1326 13.6326 16.7652 14.2803 17.25 15.1136C17.7348 15.9394 17.9773 16.9242 17.9773 18.0682C17.9773 19.303 17.6705 20.4053 17.0568 21.375C16.4508 22.3371 15.553 23.0985 14.3636 23.6591C13.1742 24.2197 11.7083 24.5 9.96591 24.5H0.0227273ZM4.94318 20.4773H8.95455C10.3258 20.4773 11.3258 20.2159 11.9545 19.6932C12.5833 19.1629 12.8977 18.4583 12.8977 17.5795C12.8977 16.9356 12.7424 16.3674 12.4318 15.875C12.1212 15.3826 11.678 14.9962 11.1023 14.7159C10.5341 14.4356 9.85606 14.2955 9.06818 14.2955H4.94318V20.4773ZM4.94318 10.9659H8.59091C9.26515 10.9659 9.86364 10.8485 10.3864 10.6136C10.9167 10.3712 11.3333 10.0303 11.6364 9.59091C11.947 9.15152 12.1023 8.625 12.1023 8.01136C12.1023 7.17045 11.803 6.49242 11.2045 5.97727C10.6136 5.46212 9.77273 5.20454 8.68182 5.20454H4.94318V10.9659ZM44.5227 24.5V1.22727H53.7045C55.4621 1.22727 56.9621 1.54167 58.2045 2.17045C59.4545 2.79167 60.4053 3.67424 61.0568 4.81818C61.7159 5.95454 62.0455 7.29167 62.0455 8.82955C62.0455 10.375 61.7121 11.7045 61.0455 12.8182C60.3788 13.9242 59.4129 14.7727 58.1477 15.3636C56.8902 15.9545 55.3674 16.25 53.5795 16.25H47.4318V12.2955H52.7841C53.7235 12.2955 54.5038 12.1667 55.125 11.9091C55.7462 11.6515 56.2083 11.2652 56.5114 10.75C56.822 10.2348 56.9773 9.5947 56.9773 8.82955C56.9773 8.05682 56.822 7.4053 56.5114 6.875C56.2083 6.3447 55.7424 5.94318 55.1136 5.67045C54.4924 5.39015 53.7083 5.25 52.7614 5.25H49.4432V24.5H44.5227ZM57.0909 13.9091L62.875 24.5H57.4432L51.7841 13.9091H57.0909ZM109.46 24.5V1.22727H118.642C120.4 1.22727 121.9 1.54167 123.142 2.17045C124.392 2.79167 125.343 3.67424 125.994 4.81818C126.653 5.95454 126.983 7.29167 126.983 8.82955C126.983 10.375 126.65 11.7045 125.983 12.8182C125.316 13.9242 124.35 14.7727 123.085 15.3636C121.828 15.9545 120.305 16.25 118.517 16.25H112.369V12.2955H117.722C118.661 12.2955 119.441 12.1667 120.062 11.9091C120.684 11.6515 121.146 11.2652 121.449 10.75C121.759 10.2348 121.915 9.5947 121.915 8.82955C121.915 8.05682 121.759 7.4053 121.449 6.875C121.146 6.3447 120.68 5.94318 120.051 5.67045C119.43 5.39015 118.646 5.25 117.699 5.25H114.381V24.5H109.46ZM122.028 13.9091L127.812 24.5H122.381L116.722 13.9091H122.028ZM137.866 1.22727H143.935L150.344 16.8636H150.616L157.026 1.22727H163.094V24.5H158.321V9.35227H158.128L152.105 24.3864H148.855L142.832 9.29545H142.639V24.5H137.866V1.22727ZM211.645 1.22727V24.5H207.395L197.27 9.85227H197.099V24.5H192.179V1.22727H196.497L206.543 15.8636H206.747V1.22727H211.645ZM215.71 24.5V1.22727H220.631V11.4886H220.938L229.312 1.22727H235.21L226.574 11.6477L235.312 24.5H229.426L223.051 14.9318L220.631 17.8864V24.5H215.71Z" fill="white"/>
<path d="M35.554 1.22727H40.4744V16.3409C40.4744 18.0379 40.0691 19.5227 39.2585 20.7955C38.4555 22.0682 37.3305 23.0606 35.8835 23.7727C34.4366 24.4773 32.7509 24.8295 30.8267 24.8295C28.8949 24.8295 27.2055 24.4773 25.7585 23.7727C24.3116 23.0606 23.1866 22.0682 22.3835 20.7955C21.5805 19.5227 21.179 18.0379 21.179 16.3409V1.22727H26.0994V15.9205C26.0994 16.8068 26.2926 17.5947 26.679 18.2841C27.0729 18.9735 27.6259 19.5152 28.3381 19.9091C29.0502 20.303 29.8797 20.5 30.8267 20.5C31.7813 20.5 32.6108 20.303 33.3153 19.9091C34.0275 19.5152 34.5767 18.9735 34.9631 18.2841C35.357 17.5947 35.554 16.8068 35.554 15.9205V1.22727ZM80.9545 8.75C80.7955 8.19697 80.572 7.70833 80.2841 7.28409C79.9962 6.85227 79.6439 6.48864 79.2273 6.19318C78.8182 5.89015 78.3485 5.65909 77.8182 5.5C77.2955 5.34091 76.7159 5.26136 76.0795 5.26136C74.8902 5.26136 73.8447 5.55682 72.9432 6.14773C72.0492 6.73864 71.3523 7.59848 70.8523 8.72727C70.3523 9.84848 70.1023 11.2197 70.1023 12.8409C70.1023 14.4621 70.3485 15.8409 70.8409 16.9773C71.3333 18.1136 72.0303 18.9811 72.9318 19.5795C73.8333 20.1705 74.8977 20.4659 76.125 20.4659C77.2386 20.4659 78.1894 20.2689 78.9773 19.875C79.7727 19.4735 80.3788 18.9091 80.7955 18.1818C81.2197 17.4545 81.4318 16.5947 81.4318 15.6023L82.4318 15.75H76.4318V12.0455H86.1705V14.9773C86.1705 17.0227 85.7386 18.7803 84.875 20.25C84.0114 21.7121 82.822 22.8409 81.3068 23.6364C79.7917 24.4242 78.0568 24.8182 76.1023 24.8182C73.9205 24.8182 72.0038 24.3371 70.3523 23.375C68.7008 22.4053 67.4129 21.0303 66.4886 19.25C65.572 17.4621 65.1136 15.3409 65.1136 12.8864C65.1136 11 65.3864 9.31818 65.9318 7.84091C66.4848 6.35606 67.2576 5.09848 68.25 4.06818C69.2424 3.03788 70.3977 2.25379 71.7159 1.71591C73.0341 1.17803 74.4621 0.90909 76 0.90909C77.3182 0.90909 78.5455 1.10227 79.6818 1.48864C80.8182 1.86742 81.8258 2.4053 82.7045 3.10227C83.5909 3.79924 84.3144 4.62879 84.875 5.59091C85.4356 6.54545 85.7955 7.59848 85.9545 8.75H80.9545ZM89.8665 24.5V1.22727H105.548V5.28409H94.7869V10.8295H104.741V14.8864H94.7869V20.4432H105.594V24.5H89.8665Z" fill="#FC3737"/>
<path d="M188.534 12.8636C188.534 15.4015 188.053 17.5606 187.091 19.3409C186.136 21.1212 184.833 22.4811 183.182 23.4205C181.538 24.3523 179.689 24.8182 177.636 24.8182C175.568 24.8182 173.712 24.3485 172.068 23.4091C170.424 22.4697 169.125 21.1098 168.17 19.3295C167.216 17.5492 166.739 15.3939 166.739 12.8636C166.739 10.3258 167.216 8.16667 168.17 6.38636C169.125 4.60606 170.424 3.25 172.068 2.31818C173.712 1.37879 175.568 0.90909 177.636 0.90909C179.689 0.90909 181.538 1.37879 183.182 2.31818C184.833 3.25 186.136 4.60606 187.091 6.38636C188.053 8.16667 188.534 10.3258 188.534 12.8636ZM183.545 12.8636C183.545 11.2197 183.299 9.83333 182.807 8.70455C182.322 7.57576 181.636 6.7197 180.75 6.13636C179.864 5.55303 178.826 5.26136 177.636 5.26136C176.447 5.26136 175.409 5.55303 174.523 6.13636C173.636 6.7197 172.947 7.57576 172.455 8.70455C171.97 9.83333 171.727 11.2197 171.727 12.8636C171.727 14.5076 171.97 15.8939 172.455 17.0227C172.947 18.1515 173.636 19.0076 174.523 19.5909C175.409 20.1742 176.447 20.4659 177.636 20.4659C178.826 20.4659 179.864 20.1742 180.75 19.5909C181.636 19.0076 182.322 18.1515 182.807 17.0227C183.299 15.8939 183.545 14.5076 183.545 12.8636Z" fill="#F93939"/>
</svg>
